# xmcd CD database file
#
# Track frame offsets:
#	150
#	17090
#	39286
#	62867
#	86564
#	107203
#	132324
#	142999
#	153058
#	168790
#	192872
#	215308
#	233363
#	250348
#	273932
#	291342
#	309183
#	327429
#
# Disc length: 4586 seconds
#
# Revision: 0
# Processed by: cddbd v1.5.2PL0 Copyright (c) Steve Scherf et al.
# Submitted via: CDex 1.51
#
DISCID=ee11e812
DTITLE=Various Artist - 15¶Ï¿Ô§h§kßD+Best Of Jazz music
DYEAR=2011
DGENRE=Jazz
TTITLE0=Best Audiophile Voices III - Salena Jones - We've Only Just Begun
TTITLE1=Best Audiophile Voices III - Cheryl Bentyne - Killing Me Softly with His Song
TTITLE2=Best Audiophile Voices III - Dina Blade - That's All
TTITLE3=Best Audiophile Voices III - Jean Frye Sidwell - Alfle
TTITLE4=Best Audiophile Voices III - Noon -  Close To You
TTITLE5=best of jazz music - Attica S. - Another Star
TTITLE6=best of jazz music - Lisa Figy - I See Your Face Before Me
TTITLE7=best of jazz music - Jasmine R. - You For Me
TTITLE8=Best Audiophile Voices III - Janet Seidel -  Secret Love
TTITLE9=Best Audiophile Voices III - Sara K - Vincent (Live)
TTITLE10=Best Audiophile Voices III - Emi Fujita - Fields Of Gold
TTITLE11=Best Audiophile Voices III - Jackie Allen - You Become My Song
TTITLE12=Best Audiophile Voices III - Alison Krauss - When You Say Nothing at All (Live)
TTITLE13=Best Audiophile Voices III - Jacqui Dankworth - But Beautiful
TTITLE14=Best Audiophile Voices III - Leslie Tucker - In This Room
TTITLE15=Best Audiophile Voices III - Karen Lane - Photograph
TTITLE16=Best Audiophile Voices III - Rebecca Pidgeon - Auld Lange Syne (Bring it on Home to Me) (Live)
TTITLE17=Best Audiophile Voices III - Jheena Lodwick - Morning Has Broken
EXTD=YEAR: 2011
EXTT0=
EXTT1=
EXTT2=
EXTT3=
EXTT4=
EXTT5=
EXTT6=
EXTT7=
EXTT8=
EXTT9=
EXTT10=
EXTT11=
EXTT12=
EXTT13=
EXTT14=
EXTT15=
EXTT16=
EXTT17=
PLAYORDER=
